<?xml version="1.0" encoding="utf-8"?>
<!-- Generator: Adobe Illustrator 27.5.0, SVG Export Plug-In . SVG Version: 6.00 Build 0)  -->
<svg version="1.1" id="BACKGROUND" xmlns="http://www.w3.org/2000/svg" xmlns:xlink="http://www.w3.org/1999/xlink" x="0px" y="0px"
	 viewBox="0 0 750 500" style="enable-background:new 0 0 750 500;" xml:space="preserve">
<g>
	<linearGradient id="SVGID_1_" gradientUnits="userSpaceOnUse" x1="370.6309" y1="2.9074" x2="379.1949" y2="487.2415">
		<stop  offset="0" style="stop-color:#131C2F"/>
		<stop  offset="1" style="stop-color:#0D1518"/>
	</linearGradient>
	<rect style="fill:url(#SVGID_1_);" width="750" height="500"/>
	<g>
		<rect x="376.475" y="168.648" style="opacity:0.32;fill:#FF00B3;" width="7.624" height="7.624"/>
		<rect x="378.381" y="143.736" style="opacity:0.53;fill:#19FCE0;" width="3.812" height="3.812"/>
		<rect x="379.334" y="117.812" style="fill:#19FCE0;" width="1.906" height="1.906"/>
		<rect x="378.381" y="215.188" style="fill:#19FCE0;" width="3.812" height="3.812"/>
		<rect x="376.475" y="237.329" style="opacity:0.53;fill:#FF00B3;" width="7.624" height="7.624"/>
		<rect x="378.381" y="201.286" style="fill:#19FCE0;" width="3.812" height="3.812"/>
		<rect x="375.385" y="275.226" style="opacity:0.72;fill:#FF00B3;" width="9.804" height="9.804"/>
		<rect x="379.016" y="185.208" style="fill:#19FCE0;" width="2.543" height="2.543"/>
		<rect x="378.381" y="19.655" style="fill:#FF00B3;" width="3.812" height="3.812"/>
		<rect x="378.381" y="82.822" style="fill:#FF00B3;" width="3.812" height="3.812"/>
		<rect x="420.129" y="355.611" style="fill:#19FCE0;" width="7.624" height="7.624"/>
		<rect x="420.129" y="225.802" style="opacity:0.48;fill:#FF00B3;" width="7.624" height="7.624"/>
		<rect x="378.381" y="403.616" style="opacity:0.32;fill:#FF00B3;" width="3.812" height="3.812"/>
		<rect x="598.333" y="93.538" style="fill:#FF00B3;" width="1.906" height="1.906"/>
		<rect x="422.035" y="402.151" style="fill:#FF00B3;" width="3.812" height="3.812"/>
		<rect x="597.38" y="188.338" style="opacity:0.32;fill:#FF00B3;" width="3.812" height="3.812"/>
		<rect x="594.384" y="137.649" style="fill:#FF00B3;" width="9.804" height="9.804"/>
		<rect x="422.669" y="372.171" style="fill:#FF00B3;" width="2.543" height="2.543"/>
		<rect x="422.669" y="170.233" style="fill:#FF00B3;" width="2.543" height="2.543"/>
		<rect x="422.035" y="286.793" style="fill:#19FCE0;" width="3.812" height="3.812"/>
		<rect x="422.035" y="269.785" style="opacity:0.72;fill:#FF00B3;" width="3.812" height="3.812"/>
		<rect x="595.474" y="267.669" style="opacity:0.72;fill:#FF00B3;" width="7.624" height="7.624"/>
		<rect x="597.38" y="220.804" style="opacity:0.32;fill:#FF00B3;" width="3.812" height="3.812"/>
		<rect x="310.549" y="105.951" style="fill:#FF00B3;" width="7.624" height="7.624"/>
		<rect x="597.38" y="151.464" style="fill:#FF00B3;" width="3.812" height="3.812"/>
		<rect x="313.408" y="55.115" style="fill:#FF00B3;" width="1.906" height="1.906"/>
		<rect x="312.455" y="217.094" style="fill:#19FCE0;" width="3.812" height="3.812"/>
		<rect x="312.455" y="138.589" style="fill:#FF00B3;" width="3.812" height="3.812"/>
		<rect x="309.459" y="87.9" style="opacity:0.72;fill:#19FCE0;" width="9.804" height="9.804"/>
		<rect x="312.455" y="197.108" style="opacity:0.72;fill:#FF00B3;" width="3.812" height="3.812"/>
		<rect x="313.09" y="284.23" style="opacity:0.44;fill:#FF00B3;" width="2.543" height="2.543"/>
		<rect x="312.455" y="37.133" style="opacity:0.32;fill:#19FCE0;" width="3.812" height="3.812"/>
		<rect x="312.455" y="20.125" style="opacity:0.32;fill:#19FCE0;" width="3.812" height="3.812"/>
		<rect x="219.533" y="250.071" style="fill:#FF00B3;" width="3.812" height="3.812"/>
		<rect x="268.456" y="82.85" style="fill:#FF00B3;" width="1.906" height="1.906"/>
		<rect x="597.38" y="314.209" style="opacity:0.72;fill:#FF00B3;" width="3.812" height="3.812"/>
		<rect x="597.38" y="300.307" style="fill:#19FCE0;" width="3.812" height="3.812"/>
		<rect x="594.384" y="249.618" style="opacity:0.53;fill:#19FCE0;" width="9.804" height="9.804"/>
		<rect x="598.014" y="284.23" style="fill:#FF00B3;" width="2.543" height="2.543"/>
		<rect x="597.38" y="198.851" style="fill:#19FCE0;" width="3.812" height="3.812"/>
		<rect x="458.893" y="184.26" style="fill:#FF00B3;" width="7.624" height="7.624"/>
		<rect x="460.799" y="159.349" style="fill:#FF00B3;" width="3.812" height="3.812"/>
		<rect x="461.752" y="28.398" style="fill:#FF00B3;" width="1.906" height="1.906"/>
		<rect x="460.799" y="294.685" style="fill:#FF00B3;" width="3.812" height="3.812"/>
		<rect x="460.799" y="216.898" style="fill:#19FCE0;" width="3.812" height="3.812"/>
		<rect x="544.134" y="173.365" style="opacity:0.53;fill:#19FCE0;" width="9.804" height="9.804"/>
		<rect x="461.433" y="200.821" style="fill:#FF00B3;" width="2.543" height="2.543"/>
		<rect x="460.799" y="115.442" style="fill:#FF00B3;" width="3.812" height="3.812"/>
		<rect x="460.799" y="98.434" style="fill:#19FCE0;" width="3.812" height="3.812"/>
		<rect x="545.224" y="30.301" style="opacity:0.53;fill:#FF00B3;" width="7.624" height="7.624"/>
		<rect x="547.13" y="5.39" style="fill:#19FCE0;" width="3.812" height="3.812"/>
		<rect x="496.567" y="307.251" style="fill:#19FCE0;" width="9.804" height="9.804"/>
		<rect x="378.381" y="297.392" style="fill:#FF00B3;" width="3.812" height="3.812"/>
		<rect x="378.381" y="263.875" style="fill:#19FCE0;" width="3.812" height="3.812"/>
		<rect x="58.429" y="293.912" style="opacity:0.72;fill:#19FCE0;" width="7.624" height="7.624"/>
		<rect x="126.281" y="75.329" style="fill:#FF00B3;" width="3.812" height="3.812"/>
		<rect x="61.288" y="241.207" style="fill:#19FCE0;" width="1.906" height="1.906"/>
		<rect x="126.281" y="146.781" style="fill:#19FCE0;" width="3.812" height="3.812"/>
		<rect x="172.023" y="94.491" style="opacity:0.32;fill:#FF00B3;" width="7.624" height="7.624"/>
		<rect x="126.281" y="132.879" style="opacity:0.72;fill:#FF00B3;" width="3.812" height="3.812"/>
		<rect x="264.507" y="123.367" style="opacity:0.32;fill:#FF00B3;" width="9.804" height="9.804"/>
		<rect x="60.335" y="223.224" style="opacity:0.53;fill:#19FCE0;" width="3.812" height="3.812"/>
		<rect x="126.281" y="197.816" style="fill:#19FCE0;" width="3.812" height="3.812"/>
		<rect x="124.375" y="13.937" style="opacity:0.53;fill:#FF00B3;" width="7.624" height="7.624"/>
		<rect x="60.335" y="330.452" style="opacity:0.32;fill:#FF00B3;" width="3.812" height="3.812"/>
		<rect x="61.288" y="246.526" style="fill:#FF00B3;" width="1.906" height="1.906"/>
		<rect x="60.335" y="267.416" style="fill:#19FCE0;" width="3.812" height="3.812"/>
		<rect x="60.335" y="125.245" style="fill:#FF00B3;" width="3.812" height="3.812"/>
		<rect x="124.238" y="107.211" style="opacity:0.53;fill:#19FCE0;" width="9.804" height="9.804"/>
		<rect x="126.281" y="188.513" style="fill:#FF00B3;" width="3.812" height="3.812"/>
		<rect x="126.281" y="171.505" style="fill:#19FCE0;" width="3.812" height="3.812"/>
		<rect x="172.023" y="248.481" style="opacity:0.53;fill:#FF00B3;" width="7.624" height="7.624"/>
		<rect x="60.335" y="179.665" style="fill:#FF00B3;" width="3.812" height="3.812"/>
		<rect x="174.882" y="197.646" style="fill:#FF00B3;" width="1.906" height="1.906"/>
		<rect x="60.335" y="307.616" style="fill:#FF00B3;" width="3.812" height="3.812"/>
		<rect x="173.929" y="281.119" style="fill:#FF00B3;" width="3.812" height="3.812"/>
		<rect x="170.933" y="230.43" style="opacity:0.32;fill:#19FCE0;" width="9.804" height="9.804"/>
		<rect x="174.563" y="265.042" style="fill:#FF00B3;" width="2.543" height="2.543"/>
		<rect x="173.929" y="179.663" style="fill:#FF00B3;" width="3.812" height="3.812"/>
		<rect x="173.929" y="162.655" style="fill:#19FCE0;" width="3.812" height="3.812"/>
		<rect x="458.893" y="71.905" style="opacity:0.72;fill:#19FCE0;" width="7.624" height="7.624"/>
		<rect x="220.486" y="69.465" style="fill:#19FCE0;" width="1.906" height="1.906"/>
		<rect x="219.533" y="26.045" style="opacity:0.32;fill:#FF00B3;" width="3.812" height="3.812"/>
		<rect x="419.039" y="135.593" style="opacity:0.53;fill:#19FCE0;" width="9.804" height="9.804"/>
		<rect x="594.384" y="108.534" style="opacity:0.53;fill:#19FCE0;" width="9.804" height="9.804"/>
		<rect x="265.597" y="6.319" style="opacity:0.53;fill:#FF00B3;" width="7.624" height="7.624"/>
		<rect x="548.083" y="98.883" style="fill:#FF00B3;" width="1.906" height="1.906"/>
		<rect x="267.503" y="52.859" style="fill:#FF00B3;" width="3.812" height="3.812"/>
		<rect x="267.503" y="38.957" style="fill:#19FCE0;" width="3.812" height="3.812"/>
		<rect x="216.537" y="350.062" style="opacity:0.53;fill:#FF00B3;" width="9.804" height="9.804"/>
		<rect x="268.137" y="22.879" style="fill:#FF00B3;" width="2.543" height="2.543"/>
		<rect x="547.13" y="80.9" style="fill:#19FCE0;" width="3.812" height="3.812"/>
		<rect x="547.13" y="63.892" style="fill:#FF00B3;" width="3.812" height="3.812"/>
		<rect x="217.627" y="169.324" style="opacity:0.32;fill:#FF00B3;" width="7.624" height="7.624"/>
		<rect x="219.533" y="144.412" style="fill:#19FCE0;" width="3.812" height="3.812"/>
		<rect x="268.456" y="75.938" style="fill:#19FCE0;" width="1.906" height="1.906"/>
		<rect x="219.533" y="215.864" style="opacity:0.72;fill:#FF00B3;" width="3.812" height="3.812"/>
		<rect x="267.503" y="159.412" style="fill:#19FCE0;" width="3.812" height="3.812"/>
		<rect x="264.507" y="250.739" style="fill:#FF00B3;" width="9.804" height="9.804"/>
		<rect x="220.168" y="185.884" style="fill:#FF00B3;" width="2.543" height="2.543"/>
		
			<rect x="595.474" y="47.761" transform="matrix(-1 -1.224647e-16 1.224647e-16 -1 1198.5717 103.1455)" style="opacity:0.53;fill:#FF00B3;" width="7.624" height="7.624"/>
		
			<rect x="126.281" y="29.227" transform="matrix(-1 -1.224647e-16 1.224647e-16 -1 256.3743 62.2658)" style="fill:#FF00B3;" width="3.812" height="3.812"/>
		
			<rect x="126.281" y="43.129" transform="matrix(-1 -1.224647e-16 1.224647e-16 -1 256.3743 90.0697)" style="fill:#19FCE0;" width="3.812" height="3.812"/>
		
			<rect x="594.384" y="356.462" transform="matrix(-1 -1.224647e-16 1.224647e-16 -1 1198.5717 722.7283)" style="fill:#19FCE0;" width="9.804" height="9.804"/>
		
			<rect x="376.475" y="54.604" transform="matrix(-1 -1.224647e-16 1.224647e-16 -1 760.5745 116.8331)" style="fill:#19FCE0;" width="7.624" height="7.624"/>
		<rect x="144.388" y="455.554" style="fill:#FF00B3;" width="1.906" height="1.906"/>
		<rect x="143.435" y="357.397" style="opacity:0.32;fill:#19FCE0;" width="3.812" height="3.812"/>
		<rect x="143.435" y="420.563" style="opacity:0.32;fill:#FF00B3;" width="3.812" height="3.812"/>
		
			<rect x="141.529" y="392.346" transform="matrix(-1 -1.224647e-16 1.224647e-16 -1 290.6815 792.3157)" style="fill:#FF00B3;" width="7.624" height="7.624"/>
		
			<rect x="597.38" y="70.173" transform="matrix(-1 -1.224647e-16 1.224647e-16 -1 1198.5715 144.1585)" style="fill:#19FCE0;" width="3.812" height="3.812"/>
		<rect x="219.533" y="100.506" style="fill:#FF00B3;" width="3.812" height="3.812"/>
		<rect x="219.533" y="83.498" style="fill:#FF00B3;" width="3.812" height="3.812"/>
		<rect x="719.177" y="108.667" style="opacity:0.72;fill:#FF00B3;" width="3.812" height="3.812"/>
		<rect x="716.181" y="153.643" style="opacity:0.53;fill:#FF00B3;" width="9.804" height="9.804"/>
		<rect x="717.271" y="27.92" style="fill:#FF00B3;" width="7.624" height="7.624"/>
		<rect x="719.177" y="3.008" style="opacity:0.53;fill:#19FCE0;" width="3.812" height="3.812"/>
		<rect x="719.177" y="74.46" style="opacity:0.32;fill:#19FCE0;" width="3.812" height="3.812"/>
		<rect x="719.812" y="44.48" style="opacity:0.53;fill:#FF00B3;" width="2.543" height="2.543"/>
		<rect x="499.563" y="282.686" style="fill:#FF00B3;" width="3.812" height="3.812"/>
		<rect x="500.516" y="102.081" style="fill:#19FCE0;" width="1.906" height="1.906"/>
		<rect x="499.563" y="58.661" style="fill:#FF00B3;" width="3.812" height="3.812"/>
		<rect x="496.567" y="382.677" style="opacity:0.72;fill:#FF00B3;" width="9.804" height="9.804"/>
		<rect x="497.657" y="201.939" style="opacity:0.53;fill:#FF00B3;" width="7.624" height="7.624"/>
		<rect x="499.563" y="177.028" style="fill:#FF00B3;" width="3.812" height="3.812"/>
		<rect x="499.563" y="248.479" style="fill:#19FCE0;" width="3.812" height="3.812"/>
		<rect x="500.198" y="218.499" style="fill:#FF00B3;" width="2.543" height="2.543"/>
		<rect x="499.563" y="133.121" style="fill:#FF00B3;" width="3.812" height="3.812"/>
		<rect x="499.563" y="116.113" style="opacity:0.53;fill:#19FCE0;" width="3.812" height="3.812"/>
		<rect x="333.75" y="364.996" style="fill:#19FCE0;" width="9.804" height="9.804"/>
		<rect x="336.746" y="340.431" style="fill:#FF00B3;" width="3.812" height="3.812"/>
		<rect x="96.376" y="272.668" style="opacity:0.72;fill:#FF00B3;" width="1.906" height="1.906"/>
		<rect x="95.423" y="229.247" style="fill:#FF00B3;" width="3.812" height="3.812"/>
		<rect x="333.75" y="440.422" style="opacity:0.72;fill:#FF00B3;" width="9.804" height="9.804"/>
		<rect x="93.517" y="372.526" style="opacity:0.72;fill:#19FCE0;" width="7.624" height="7.624"/>
		<rect x="95.423" y="347.614" style="opacity:0.32;fill:#FF00B3;" width="3.812" height="3.812"/>
		<rect x="336.746" y="306.224" style="opacity:0.53;fill:#FF00B3;" width="3.812" height="3.812"/>
		<rect x="337.38" y="276.244" style="fill:#FF00B3;" width="2.543" height="2.543"/>
		<rect x="95.423" y="303.708" style="fill:#19FCE0;" width="3.812" height="3.812"/>
		<rect x="95.423" y="286.7" style="fill:#FF00B3;" width="3.812" height="3.812"/>
		<rect x="267.503" y="235.672" style="fill:#19FCE0;" width="3.812" height="3.812"/>
		<rect x="267.503" y="152.917" style="fill:#FF00B3;" width="3.812" height="3.812"/>
		<rect x="28.925" y="41.986" style="fill:#19FCE0;" width="1.906" height="1.906"/>
		<rect x="24.976" y="82.503" style="opacity:0.53;fill:#19FCE0;" width="9.804" height="9.804"/>
		<rect x="27.972" y="11.996" style="fill:#FF00B3;" width="3.812" height="3.812"/>
		<rect x="26.282" style="opacity:0.53;fill:#19FCE0;" width="7.193" height="7.193"/>
		<rect x="28.925" y="35.075" style="fill:#FF00B3;" width="1.906" height="1.906"/>
		<rect x="27.972" y="118.549" style="fill:#FF00B3;" width="3.812" height="3.812"/>
		<rect x="24.976" y="209.876" style="opacity:0.72;fill:#19FCE0;" width="9.804" height="9.804"/>
		<rect x="27.972" y="194.809" style="fill:#19FCE0;" width="3.812" height="3.812"/>
		<rect x="27.972" y="112.054" style="opacity:0.32;fill:#FF00B3;" width="3.812" height="3.812"/>
		<rect x="641.505" y="128.487" style="opacity:0.32;fill:#FF00B3;" width="3.812" height="3.812"/>
		<rect x="685.555" y="272.056" style="fill:#FF00B3;" width="1.906" height="1.906"/>
		<rect x="681.606" y="312.573" style="opacity:0.53;fill:#FF00B3;" width="9.804" height="9.804"/>
		<rect x="682.696" y="195.526" style="opacity:0.53;fill:#FF00B3;" width="7.624" height="7.624"/>
		<rect x="684.602" y="170.614" style="fill:#19FCE0;" width="3.812" height="3.812"/>
		<rect x="684.602" y="242.066" style="opacity:0.32;fill:#19FCE0;" width="3.812" height="3.812"/>
		<rect x="684.602" y="228.164" style="opacity:0.72;fill:#FF00B3;" width="3.812" height="3.812"/>
		<rect x="638.509" y="228.478" style="fill:#FF00B3;" width="9.804" height="9.804"/>
		<rect x="685.237" y="212.086" style="fill:#19FCE0;" width="2.543" height="2.543"/>
		<rect x="639.599" y="47.739" style="opacity:0.53;fill:#FF00B3;" width="7.624" height="7.624"/>
		<rect x="641.505" y="22.828" style="fill:#19FCE0;" width="3.812" height="3.812"/>
		<rect x="685.555" y="50.62" style="fill:#FF00B3;" width="1.906" height="1.906"/>
		<rect x="641.505" y="94.28" style="fill:#19FCE0;" width="3.812" height="3.812"/>
		<rect x="684.602" y="348.619" style="fill:#FF00B3;" width="3.812" height="3.812"/>
		<rect x="681.606" y="439.946" style="fill:#19FCE0;" width="9.804" height="9.804"/>
		<rect x="642.139" y="64.3" style="fill:#FF00B3;" width="2.543" height="2.543"/>
		
			<rect x="684.602" y="107.249" transform="matrix(-1 -1.224647e-16 1.224647e-16 -1 1373.0166 218.3105)" style="fill:#19FCE0;" width="3.812" height="3.812"/>
		<rect x="684.602" y="424.879" style="opacity:0.72;fill:#FF00B3;" width="3.812" height="3.812"/>
		<rect x="684.602" y="342.124" style="opacity:0.32;fill:#FF00B3;" width="3.812" height="3.812"/>
		<rect x="92.427" y="182.87" style="opacity:0.32;fill:#FF00B3;" width="9.804" height="9.804"/>
		<rect x="95.423" y="155.091" style="fill:#19FCE0;" width="3.812" height="3.812"/>
	</g>
</g>
</svg>
